G04 #@! TF.FileFunction,Legend,Top*
%FSLAX46Y46*%
G04 Gerber Fmt 4.6, Leading zero omitted, Abs format (unit mm)*
G04 Created by KiCad (PCBNEW 4.0.2-4+6225~38~ubuntu14.04.1-stable) date Mon 22 Feb 2016 06:37:57 PM CST*
%MOMM*%
G01*
G04 APERTURE LIST*
%ADD10C,0.100000*%
%ADD11C,0.200000*%
%ADD12C,0.150000*%
%ADD13C,0.254000*%
%ADD14C,0.127000*%
G04 APERTURE END LIST*
D10*
D11*
X52070000Y-29210000D02*
X158750000Y-29210000D01*
X52070000Y-119380000D02*
X52070000Y-29210000D01*
X158750000Y-119380000D02*
X52070000Y-119380000D01*
X158750000Y-29210000D02*
X158750000Y-119380000D01*
D12*
X95885000Y-70358000D02*
X95885000Y-64008000D01*
X95885000Y-64008000D02*
X58039000Y-64008000D01*
X58039000Y-64008000D02*
X58039000Y-70358000D01*
X58039000Y-70358000D02*
X95885000Y-70358000D01*
X95885000Y-53848000D02*
X95885000Y-47498000D01*
X95885000Y-47498000D02*
X58039000Y-47498000D01*
X58039000Y-47498000D02*
X58039000Y-53848000D01*
X58039000Y-53848000D02*
X95885000Y-53848000D01*
X95885000Y-89408000D02*
X95885000Y-83058000D01*
X95885000Y-83058000D02*
X58039000Y-83058000D01*
X58039000Y-83058000D02*
X58039000Y-89408000D01*
X58039000Y-89408000D02*
X95885000Y-89408000D01*
X89916000Y-40767000D02*
X89916000Y-34163000D01*
X89916000Y-34163000D02*
X59944000Y-34163000D01*
X59944000Y-34163000D02*
X59944000Y-40767000D01*
X59944000Y-40767000D02*
X89916000Y-40767000D01*
D13*
X166065200Y-115062000D02*
X166090600Y-93065600D01*
D12*
X94869000Y-34163000D02*
X94869000Y-40767000D01*
X94869000Y-40767000D02*
X124841000Y-40767000D01*
X124841000Y-40767000D02*
X124841000Y-34163000D01*
X124841000Y-34163000D02*
X94869000Y-34163000D01*
X85090000Y-102870000D02*
X77470000Y-102870000D01*
X85090000Y-105410000D02*
X77470000Y-105410000D01*
X87910000Y-105690000D02*
X86360000Y-105690000D01*
X77470000Y-102870000D02*
X77470000Y-105410000D01*
X85090000Y-105410000D02*
X85090000Y-102870000D01*
X86360000Y-102590000D02*
X87910000Y-102590000D01*
X87910000Y-102590000D02*
X87910000Y-105690000D01*
X137795000Y-80645000D02*
X137795000Y-83185000D01*
X138075000Y-77825000D02*
X138075000Y-79375000D01*
X137795000Y-80645000D02*
X135255000Y-80645000D01*
X134975000Y-79375000D02*
X134975000Y-77825000D01*
X134975000Y-77825000D02*
X138075000Y-77825000D01*
X135255000Y-80645000D02*
X135255000Y-83185000D01*
X135255000Y-83185000D02*
X137795000Y-83185000D01*
X138430000Y-47625000D02*
X138430000Y-50165000D01*
X138710000Y-44805000D02*
X138710000Y-46355000D01*
X138430000Y-47625000D02*
X135890000Y-47625000D01*
X135610000Y-46355000D02*
X135610000Y-44805000D01*
X135610000Y-44805000D02*
X138710000Y-44805000D01*
X135890000Y-47625000D02*
X135890000Y-50165000D01*
X135890000Y-50165000D02*
X138430000Y-50165000D01*
X96520000Y-102235000D02*
X109220000Y-102235000D01*
X109220000Y-102235000D02*
X109220000Y-104775000D01*
X109220000Y-104775000D02*
X96520000Y-104775000D01*
X93700000Y-101955000D02*
X95250000Y-101955000D01*
X96520000Y-102235000D02*
X96520000Y-104775000D01*
X95250000Y-105055000D02*
X93700000Y-105055000D01*
X93700000Y-105055000D02*
X93700000Y-101955000D01*
X123825000Y-104140000D02*
G75*
G03X123825000Y-104140000I-2540000J0D01*
G01*
X118745000Y-106680000D02*
X118745000Y-76200000D01*
X118745000Y-76200000D02*
X128905000Y-76200000D01*
X128905000Y-76200000D02*
X128905000Y-106680000D01*
X128905000Y-106680000D02*
X118745000Y-106680000D01*
X123825000Y-71120000D02*
G75*
G03X123825000Y-71120000I-2540000J0D01*
G01*
X118745000Y-73660000D02*
X118745000Y-43180000D01*
X118745000Y-43180000D02*
X128905000Y-43180000D01*
X128905000Y-43180000D02*
X128905000Y-73660000D01*
X128905000Y-73660000D02*
X118745000Y-73660000D01*
X87296667Y-71842381D02*
X87296667Y-72556667D01*
X87249047Y-72699524D01*
X87153809Y-72794762D01*
X87010952Y-72842381D01*
X86915714Y-72842381D01*
X88296667Y-72842381D02*
X87725238Y-72842381D01*
X88010952Y-72842381D02*
X88010952Y-71842381D01*
X87915714Y-71985238D01*
X87820476Y-72080476D01*
X87725238Y-72128095D01*
X87296667Y-55332381D02*
X87296667Y-56046667D01*
X87249047Y-56189524D01*
X87153809Y-56284762D01*
X87010952Y-56332381D01*
X86915714Y-56332381D01*
X87725238Y-55427619D02*
X87772857Y-55380000D01*
X87868095Y-55332381D01*
X88106191Y-55332381D01*
X88201429Y-55380000D01*
X88249048Y-55427619D01*
X88296667Y-55522857D01*
X88296667Y-55618095D01*
X88249048Y-55760952D01*
X87677619Y-56332381D01*
X88296667Y-56332381D01*
X87296667Y-90892381D02*
X87296667Y-91606667D01*
X87249047Y-91749524D01*
X87153809Y-91844762D01*
X87010952Y-91892381D01*
X86915714Y-91892381D01*
X87677619Y-90892381D02*
X88296667Y-90892381D01*
X87963333Y-91273333D01*
X88106191Y-91273333D01*
X88201429Y-91320952D01*
X88249048Y-91368571D01*
X88296667Y-91463810D01*
X88296667Y-91701905D01*
X88249048Y-91797143D01*
X88201429Y-91844762D01*
X88106191Y-91892381D01*
X87820476Y-91892381D01*
X87725238Y-91844762D01*
X87677619Y-91797143D01*
X80692667Y-41743381D02*
X80692667Y-42457667D01*
X80645047Y-42600524D01*
X80549809Y-42695762D01*
X80406952Y-42743381D01*
X80311714Y-42743381D01*
X81597429Y-42076714D02*
X81597429Y-42743381D01*
X81359333Y-41695762D02*
X81121238Y-42410048D01*
X81740286Y-42410048D01*
D14*
X152859619Y-104495599D02*
X153585333Y-104495599D01*
X153730476Y-104531885D01*
X153827238Y-104604456D01*
X153875619Y-104713313D01*
X153875619Y-104785885D01*
X152859619Y-103769885D02*
X152859619Y-104132742D01*
X153343429Y-104169028D01*
X153295048Y-104132742D01*
X153246667Y-104060171D01*
X153246667Y-103878742D01*
X153295048Y-103806171D01*
X153343429Y-103769885D01*
X153440190Y-103733600D01*
X153682095Y-103733600D01*
X153778857Y-103769885D01*
X153827238Y-103806171D01*
X153875619Y-103878742D01*
X153875619Y-104060171D01*
X153827238Y-104132742D01*
X153778857Y-104169028D01*
X154180419Y-107144456D02*
X154180419Y-106636456D01*
X155196419Y-106963027D01*
X154180419Y-106201028D02*
X154180419Y-106128456D01*
X154228800Y-106055885D01*
X154277181Y-106019599D01*
X154373943Y-105983313D01*
X154567467Y-105947028D01*
X154809371Y-105947028D01*
X155002895Y-105983313D01*
X155099657Y-106019599D01*
X155148038Y-106055885D01*
X155196419Y-106128456D01*
X155196419Y-106201028D01*
X155148038Y-106273599D01*
X155099657Y-106309885D01*
X155002895Y-106346170D01*
X154809371Y-106382456D01*
X154567467Y-106382456D01*
X154373943Y-106346170D01*
X154277181Y-106309885D01*
X154228800Y-106273599D01*
X154180419Y-106201028D01*
X154180419Y-105257599D02*
X154180419Y-105620456D01*
X154664229Y-105656742D01*
X154615848Y-105620456D01*
X154567467Y-105547885D01*
X154567467Y-105366456D01*
X154615848Y-105293885D01*
X154664229Y-105257599D01*
X154760990Y-105221314D01*
X155002895Y-105221314D01*
X155099657Y-105257599D01*
X155148038Y-105293885D01*
X155196419Y-105366456D01*
X155196419Y-105547885D01*
X155148038Y-105620456D01*
X155099657Y-105656742D01*
X154519086Y-104568171D02*
X155196419Y-104568171D01*
X154132038Y-104749600D02*
X154857752Y-104931028D01*
X154857752Y-104459314D01*
X154180419Y-104241600D02*
X154180419Y-103769886D01*
X154567467Y-104023886D01*
X154567467Y-103915028D01*
X154615848Y-103842457D01*
X154664229Y-103806171D01*
X154760990Y-103769886D01*
X155002895Y-103769886D01*
X155099657Y-103806171D01*
X155148038Y-103842457D01*
X155196419Y-103915028D01*
X155196419Y-104132743D01*
X155148038Y-104205314D01*
X155099657Y-104241600D01*
X154809371Y-103443314D02*
X154809371Y-102862743D01*
X154180419Y-102354743D02*
X154180419Y-102282171D01*
X154228800Y-102209600D01*
X154277181Y-102173314D01*
X154373943Y-102137028D01*
X154567467Y-102100743D01*
X154809371Y-102100743D01*
X155002895Y-102137028D01*
X155099657Y-102173314D01*
X155148038Y-102209600D01*
X155196419Y-102282171D01*
X155196419Y-102354743D01*
X155148038Y-102427314D01*
X155099657Y-102463600D01*
X155002895Y-102499885D01*
X154809371Y-102536171D01*
X154567467Y-102536171D01*
X154373943Y-102499885D01*
X154277181Y-102463600D01*
X154228800Y-102427314D01*
X154180419Y-102354743D01*
X154277181Y-101810457D02*
X154228800Y-101774171D01*
X154180419Y-101701600D01*
X154180419Y-101520171D01*
X154228800Y-101447600D01*
X154277181Y-101411314D01*
X154373943Y-101375029D01*
X154470705Y-101375029D01*
X154615848Y-101411314D01*
X155196419Y-101846743D01*
X155196419Y-101375029D01*
D12*
X103425667Y-32091381D02*
X103425667Y-32805667D01*
X103378047Y-32948524D01*
X103282809Y-33043762D01*
X103139952Y-33091381D01*
X103044714Y-33091381D01*
X104330429Y-32091381D02*
X104139952Y-32091381D01*
X104044714Y-32139000D01*
X103997095Y-32186619D01*
X103901857Y-32329476D01*
X103854238Y-32519952D01*
X103854238Y-32900905D01*
X103901857Y-32996143D01*
X103949476Y-33043762D01*
X104044714Y-33091381D01*
X104235191Y-33091381D01*
X104330429Y-33043762D01*
X104378048Y-32996143D01*
X104425667Y-32900905D01*
X104425667Y-32662810D01*
X104378048Y-32567571D01*
X104330429Y-32519952D01*
X104235191Y-32472333D01*
X104044714Y-32472333D01*
X103949476Y-32519952D01*
X103901857Y-32567571D01*
X103854238Y-32662810D01*
X91912381Y-104878095D02*
X90912381Y-104878095D01*
X90912381Y-104497142D01*
X90960000Y-104401904D01*
X91007619Y-104354285D01*
X91102857Y-104306666D01*
X91245714Y-104306666D01*
X91340952Y-104354285D01*
X91388571Y-104401904D01*
X91436190Y-104497142D01*
X91436190Y-104878095D01*
X91912381Y-103354285D02*
X91912381Y-103925714D01*
X91912381Y-103640000D02*
X90912381Y-103640000D01*
X91055238Y-103735238D01*
X91150476Y-103830476D01*
X91198095Y-103925714D01*
X135786905Y-74727381D02*
X135786905Y-73727381D01*
X136167858Y-73727381D01*
X136263096Y-73775000D01*
X136310715Y-73822619D01*
X136358334Y-73917857D01*
X136358334Y-74060714D01*
X136310715Y-74155952D01*
X136263096Y-74203571D01*
X136167858Y-74251190D01*
X135786905Y-74251190D01*
X136739286Y-73822619D02*
X136786905Y-73775000D01*
X136882143Y-73727381D01*
X137120239Y-73727381D01*
X137215477Y-73775000D01*
X137263096Y-73822619D01*
X137310715Y-73917857D01*
X137310715Y-74013095D01*
X137263096Y-74155952D01*
X136691667Y-74727381D01*
X137310715Y-74727381D01*
X136421905Y-41707381D02*
X136421905Y-40707381D01*
X136802858Y-40707381D01*
X136898096Y-40755000D01*
X136945715Y-40802619D01*
X136993334Y-40897857D01*
X136993334Y-41040714D01*
X136945715Y-41135952D01*
X136898096Y-41183571D01*
X136802858Y-41231190D01*
X136421905Y-41231190D01*
X137326667Y-40707381D02*
X137945715Y-40707381D01*
X137612381Y-41088333D01*
X137755239Y-41088333D01*
X137850477Y-41135952D01*
X137898096Y-41183571D01*
X137945715Y-41278810D01*
X137945715Y-41516905D01*
X137898096Y-41612143D01*
X137850477Y-41659762D01*
X137755239Y-41707381D01*
X137469524Y-41707381D01*
X137374286Y-41659762D01*
X137326667Y-41612143D01*
X90602381Y-104243095D02*
X89602381Y-104243095D01*
X89602381Y-103862142D01*
X89650000Y-103766904D01*
X89697619Y-103719285D01*
X89792857Y-103671666D01*
X89935714Y-103671666D01*
X90030952Y-103719285D01*
X90078571Y-103766904D01*
X90126190Y-103862142D01*
X90126190Y-104243095D01*
X89935714Y-102814523D02*
X90602381Y-102814523D01*
X89554762Y-103052619D02*
X90269048Y-103290714D01*
X90269048Y-102671666D01*
X125817381Y-74421905D02*
X126626905Y-74421905D01*
X126722143Y-74374286D01*
X126769762Y-74326667D01*
X126817381Y-74231429D01*
X126817381Y-74040952D01*
X126769762Y-73945714D01*
X126722143Y-73898095D01*
X126626905Y-73850476D01*
X125817381Y-73850476D01*
X126817381Y-72850476D02*
X126817381Y-73421905D01*
X126817381Y-73136191D02*
X125817381Y-73136191D01*
X125960238Y-73231429D01*
X126055476Y-73326667D01*
X126103095Y-73421905D01*
X125817381Y-41401905D02*
X126626905Y-41401905D01*
X126722143Y-41354286D01*
X126769762Y-41306667D01*
X126817381Y-41211429D01*
X126817381Y-41020952D01*
X126769762Y-40925714D01*
X126722143Y-40878095D01*
X126626905Y-40830476D01*
X125817381Y-40830476D01*
X125912619Y-40401905D02*
X125865000Y-40354286D01*
X125817381Y-40259048D01*
X125817381Y-40020952D01*
X125865000Y-39925714D01*
X125912619Y-39878095D01*
X126007857Y-39830476D01*
X126103095Y-39830476D01*
X126245952Y-39878095D01*
X126817381Y-40449524D01*
X126817381Y-39830476D01*
M02*
