G04 #@! TF.FileFunction,Copper,L1,Top,Signal*
%FSLAX46Y46*%
G04 Gerber Fmt 4.6, Leading zero omitted, Abs format (unit mm)*
G04 Created by KiCad (PCBNEW 4.0.2-4+6225~38~ubuntu14.04.1-stable) date Mon 22 Feb 2016 06:37:57 PM CST*
%MOMM*%
G01*
G04 APERTURE LIST*
%ADD10C,0.100000*%
%ADD11C,3.810000*%
%ADD12R,1.524000X1.524000*%
%ADD13C,1.524000*%
%ADD14C,4.114800*%
%ADD15C,3.098800*%
%ADD16R,1.727200X2.032000*%
%ADD17O,1.727200X2.032000*%
%ADD18R,2.032000X2.032000*%
%ADD19O,2.032000X2.032000*%
%ADD20C,1.200000*%
%ADD21C,1.240000*%
%ADD22C,0.600000*%
%ADD23C,0.478600*%
G04 APERTURE END LIST*
D10*
D11*
X93599000Y-67183000D03*
X60325000Y-67183000D03*
D12*
X67310000Y-68580000D03*
D13*
X70104000Y-68580000D03*
X72771000Y-68580000D03*
X75565000Y-68580000D03*
X78359000Y-68580000D03*
X81026000Y-68580000D03*
X83820000Y-68580000D03*
X86487000Y-68580000D03*
X68707000Y-65786000D03*
X71501000Y-65786000D03*
X74168000Y-65786000D03*
X76962000Y-65786000D03*
X79629000Y-65786000D03*
X82423000Y-65786000D03*
X85217000Y-65786000D03*
D11*
X93599000Y-50673000D03*
X60325000Y-50673000D03*
D12*
X67310000Y-52070000D03*
D13*
X70104000Y-52070000D03*
X72771000Y-52070000D03*
X75565000Y-52070000D03*
X78359000Y-52070000D03*
X81026000Y-52070000D03*
X83820000Y-52070000D03*
X86487000Y-52070000D03*
X68707000Y-49276000D03*
X71501000Y-49276000D03*
X74168000Y-49276000D03*
X76962000Y-49276000D03*
X79629000Y-49276000D03*
X82423000Y-49276000D03*
X85217000Y-49276000D03*
D11*
X93599000Y-86233000D03*
X60325000Y-86233000D03*
D12*
X67310000Y-87630000D03*
D13*
X70104000Y-87630000D03*
X72771000Y-87630000D03*
X75565000Y-87630000D03*
X78359000Y-87630000D03*
X81026000Y-87630000D03*
X83820000Y-87630000D03*
X86487000Y-87630000D03*
X68707000Y-84836000D03*
X71501000Y-84836000D03*
X74168000Y-84836000D03*
X76962000Y-84836000D03*
X79629000Y-84836000D03*
X82423000Y-84836000D03*
X85217000Y-84836000D03*
D11*
X87376000Y-37592000D03*
X62357000Y-37592000D03*
D12*
X69469000Y-38989000D03*
D13*
X72136000Y-38989000D03*
X74930000Y-38989000D03*
X77597000Y-38989000D03*
X80391000Y-38989000D03*
X70739000Y-36195000D03*
X73533000Y-36195000D03*
X76200000Y-36195000D03*
X78994000Y-36195000D03*
D14*
X138480800Y-99288600D03*
X143484600Y-99288600D03*
X138480800Y-109296200D03*
X143484600Y-109296200D03*
D15*
X152476200Y-93548200D03*
X152476200Y-115036600D03*
D11*
X97409000Y-37338000D03*
X122428000Y-37338000D03*
D12*
X115316000Y-35941000D03*
D13*
X112649000Y-35941000D03*
X109855000Y-35941000D03*
X107188000Y-35941000D03*
X104394000Y-35941000D03*
X114046000Y-38735000D03*
X111252000Y-38735000D03*
X108585000Y-38735000D03*
X105791000Y-38735000D03*
D16*
X86360000Y-104140000D03*
D17*
X83820000Y-104140000D03*
X81280000Y-104140000D03*
X78740000Y-104140000D03*
D18*
X136525000Y-79375000D03*
D19*
X136525000Y-81915000D03*
D18*
X137160000Y-46355000D03*
D19*
X137160000Y-48895000D03*
D16*
X95250000Y-103505000D03*
D17*
X97790000Y-103505000D03*
X100330000Y-103505000D03*
X102870000Y-103505000D03*
X105410000Y-103505000D03*
X107950000Y-103505000D03*
D20*
X116205000Y-104140000D03*
X116205000Y-101600000D03*
D21*
X116205000Y-99060000D03*
D20*
X116205000Y-78740000D03*
X131445000Y-101600000D03*
X131445000Y-99060000D03*
X131445000Y-78740000D03*
X131445000Y-83820000D03*
X116205000Y-71120000D03*
X116205000Y-68580000D03*
D21*
X116205000Y-66040000D03*
D20*
X116205000Y-45720000D03*
X131445000Y-68580000D03*
X131445000Y-66040000D03*
X131445000Y-45720000D03*
X131445000Y-50800000D03*
D22*
X97155000Y-44450000D03*
X81915000Y-58420000D03*
X79375000Y-60960000D03*
X78740000Y-78105000D03*
X78740000Y-74295000D03*
X84455000Y-74295000D03*
X84455000Y-93980000D03*
X80645000Y-97155000D03*
X84455000Y-71755000D03*
X74930000Y-44450000D03*
X85725000Y-61595000D03*
X82550000Y-78740000D03*
X93345000Y-100330000D03*
X95250000Y-96520000D03*
X116205000Y-88265000D03*
X105410000Y-48895000D03*
X80645000Y-45085000D03*
X67310000Y-44450000D03*
D23*
X81915000Y-58420000D02*
X79375000Y-60960000D01*
X78740000Y-78105000D02*
X78740000Y-74295000D01*
X84455000Y-74295000D02*
X84455000Y-83185000D01*
X84455000Y-83185000D02*
X83820000Y-83820000D01*
X83820000Y-83820000D02*
X83820000Y-86360000D01*
X83820000Y-86360000D02*
X85090000Y-86360000D01*
X85090000Y-86360000D02*
X85090000Y-93345000D01*
X85090000Y-93345000D02*
X84455000Y-93980000D01*
X80645000Y-97155000D02*
X80645000Y-100965000D01*
X80645000Y-100965000D02*
X79375000Y-102235000D01*
X79375000Y-102235000D02*
X79375000Y-103505000D01*
X79375000Y-103505000D02*
X78740000Y-104140000D01*
X84455000Y-71755000D02*
X88265000Y-75565000D01*
X88265000Y-75565000D02*
X88265000Y-88265000D01*
X88265000Y-88265000D02*
X86360000Y-90170000D01*
X86360000Y-90170000D02*
X86360000Y-104140000D01*
X72771000Y-52070000D02*
X73025000Y-52070000D01*
X73025000Y-52070000D02*
X74295000Y-50800000D01*
X74295000Y-50800000D02*
X75565000Y-50800000D01*
X75565000Y-50800000D02*
X75565000Y-48260000D01*
X75565000Y-48260000D02*
X74930000Y-47625000D01*
X74930000Y-47625000D02*
X74930000Y-44450000D01*
X74930000Y-44450000D02*
X74930000Y-38989000D01*
X85725000Y-61595000D02*
X88265000Y-64135000D01*
X88265000Y-64135000D02*
X88265000Y-69850000D01*
X88265000Y-69850000D02*
X107950000Y-89535000D01*
X107950000Y-89535000D02*
X107950000Y-103505000D01*
X82423000Y-49276000D02*
X82550000Y-49530000D01*
X82550000Y-49530000D02*
X82550000Y-53340000D01*
X82550000Y-53340000D02*
X83820000Y-54610000D01*
X83820000Y-54610000D02*
X83820000Y-67310000D01*
X83820000Y-67310000D02*
X82550000Y-67310000D01*
X82550000Y-67310000D02*
X82550000Y-78740000D01*
X82550000Y-78740000D02*
X82550000Y-85090000D01*
X82550000Y-85090000D02*
X82423000Y-84836000D01*
X100330000Y-103505000D02*
X99695000Y-102870000D01*
X99695000Y-102870000D02*
X99695000Y-101600000D01*
X99695000Y-101600000D02*
X94615000Y-101600000D01*
X94615000Y-101600000D02*
X93345000Y-100330000D01*
X131445000Y-99060000D02*
X132715000Y-97790000D01*
X132715000Y-97790000D02*
X132715000Y-67310000D01*
X132715000Y-67310000D02*
X131445000Y-66040000D01*
X116205000Y-101600000D02*
X116205000Y-104140000D01*
X116205000Y-71120000D02*
X116205000Y-68580000D01*
X116205000Y-78740000D02*
X116205000Y-88265000D01*
X116205000Y-88265000D02*
X116205000Y-99060000D01*
X116205000Y-66040000D02*
X116205000Y-45720000D01*
X116205000Y-68580000D02*
X117475000Y-69850000D01*
X117475000Y-69850000D02*
X117475000Y-72390000D01*
X117475000Y-72390000D02*
X116205000Y-73660000D01*
X116205000Y-73660000D02*
X116205000Y-78740000D01*
X116205000Y-68580000D02*
X116205000Y-66040000D01*
X116205000Y-99060000D02*
X116205000Y-101600000D01*
X83820000Y-104140000D02*
X83185000Y-103505000D01*
X83185000Y-103505000D02*
X83185000Y-102235000D01*
X83185000Y-102235000D02*
X82550000Y-101600000D01*
X82550000Y-101600000D02*
X82550000Y-86360000D01*
X82550000Y-86360000D02*
X80645000Y-86360000D01*
X80645000Y-86360000D02*
X79375000Y-85090000D01*
X79375000Y-85090000D02*
X79629000Y-84836000D01*
X79629000Y-84836000D02*
X78740000Y-84455000D01*
X78740000Y-84455000D02*
X78740000Y-83820000D01*
X78740000Y-83820000D02*
X76835000Y-81915000D01*
X76835000Y-81915000D02*
X76835000Y-67310000D01*
X76835000Y-67310000D02*
X78105000Y-67310000D01*
X78105000Y-67310000D02*
X79629000Y-65786000D01*
X79629000Y-65786000D02*
X78740000Y-65405000D01*
X78740000Y-65405000D02*
X78740000Y-64770000D01*
X78740000Y-64770000D02*
X76835000Y-62865000D01*
X76835000Y-62865000D02*
X76835000Y-50800000D01*
X76835000Y-50800000D02*
X78105000Y-50800000D01*
X78105000Y-50800000D02*
X79629000Y-49276000D01*
X79629000Y-49276000D02*
X80645000Y-48260000D01*
X80645000Y-48260000D02*
X80645000Y-45085000D01*
X80645000Y-45085000D02*
X80645000Y-44450000D01*
X80645000Y-44450000D02*
X80645000Y-38735000D01*
X80645000Y-38735000D02*
X80391000Y-38989000D01*
X72136000Y-38989000D02*
X71120000Y-40005000D01*
X71120000Y-40005000D02*
X71120000Y-40640000D01*
X71120000Y-40640000D02*
X67310000Y-44450000D01*
X67310000Y-44450000D02*
X67310000Y-50800000D01*
X67310000Y-50800000D02*
X68580000Y-50800000D01*
X68580000Y-50800000D02*
X69850000Y-52070000D01*
X69850000Y-52070000D02*
X70104000Y-52070000D01*
X71501000Y-65786000D02*
X71755000Y-66040000D01*
X71755000Y-66040000D02*
X71120000Y-66040000D01*
X74295000Y-66040000D02*
X74168000Y-65786000D01*
M02*
